<mxfile host="app.diagrams.net" modified="2021-03-23T09:14:17.178Z" agent="5.0 (Windows NT 10.0; WOW64) AppleWebKit/537.36 (KHTML, like Gecko) Chrome/72.0.3626.81 Safari/537.36 SE 2.X MetaSr 1.0" etag="ZnSEiJasiE0SlF2SG7BL" version="14.5.0" type="github">
  <diagram id="7Ce08lM4WCnX2jAJ2bwq">
    <mxGraphModel dx="2062" dy="1068" grid="1" gridSize="10" guides="1" tooltips="1" connect="1" arrows="1" fold="1" page="1" pageScale="1" pageWidth="827" pageHeight="1169" math="0" shadow="0">
      <root>
        <mxCell id="0" />
        <mxCell id="1" parent="0" />
      </root>
    </mxGraphModel>
  </diagram>
</mxfile>
